999
created by FILOU-NC12
0
SECTION
2
HEADER
9
$ACADVER
1
AC1009
9
$INSBASE
10
0.0
20
0.0
30
0.0
9
$EXTMIN
10
0.0
20
0.0
9
$EXTMAX
10
1000.0
20
1000.0
0
ENDSEC
  0
SECTION
  2
TABLES
  0
TABLE
  2
LTYPE
 70
     2
  0
LTYPE
  2
FASTFEED
 70
     0
  3
Fastfeed __ __ __ __ __ __ __ __ __ __ __ __ __
 72
    65
 73
     2
 40
9.525
 49
6.35
 49
-3.175
  0
ENDTAB
  0
TABLE
  2
LAYER
 70
    10
  0
LAYER
  2
0
 70
     0
 62
 7 
  6
CONTINUOUS
  0
ENDTAB
  0
ENDSEC
  0
SECTION
  2
ENTITIES
  0
CIRCLE
  8
0
 10
127.5
 20
125
 30
0
 40
3.14999999999998
 62
 7 
  0
CIRCLE
  8
0
 10
45.5000000000001
 20
125
 30
0
 40
3.14999999999998
 62
 7 
  0
CIRCLE
  8
0
 10
127.5
 20
150
 30
0
 40
3.15000000000003
 62
 7 
  0
CIRCLE
  8
0
 10
45.5000000000001
 20
150
 30
0
 40
3.15000000000003
 62
 7 
  0
CIRCLE
  8
0
 10
45.5
 20
235
 30
0
 40
3.15000000000001
 62
 7 
  0
CIRCLE
  8
0
 10
127.5
 20
235
 30
0
 40
3.15000000000001
 62
 7 
  0
CIRCLE
  8
0
 10
127.5
 20
40.0000000000001
 30
0
 40
3.14999999999999
 62
 7 
  0
CIRCLE
  8
0
 10
45.5000000000001
 20
40
 30
0
 40
3.15000000000001
 62
 7 
  0
CIRCLE
  8
0
 10
160
 20
10.0000000000001
 30
0
 40
1.6
 62
 7 
  0
CIRCLE
  8
0
 10
160
 20
265
 30
0
 40
1.6
 62
 7 
  0
CIRCLE
  8
0
 10
10
 20
265
 30
0
 40
1.6
 62
 7 
  0
CIRCLE
  8
0
 10
10.0000000000001
 20
10
 30
0
 40
1.6
 62
 7 
  0
LINE
  8
0
 10
160
 20
275
 30
0
 11
10
 21
275
 31
0
 62
 7 
  0
LINE
  8
0
 10
18.2972441093001
 20
130
 30
0
 11
151.7027558907
 21
130
 31
0
 62
 7 
  0
LINE
  8
0
 10
132.5
 20
120
 30
0
 11
37.5000000000001
 21
120
 31
0
 62
 7 
  0
LINE
  8
0
 10
132.5
 20
85
 30
0
 11
37.5000000000001
 21
85
 31
0
 62
 7 
  0
LINE
  8
0
 10
152.5
 20
60.0000000000001
 30
0
 11
17.5000000000001
 21
60
 31
0
 62
 7 
  0
LINE
  8
0
 10
132.5
 20
35.0000000000001
 30
0
 11
37.5000000000001
 21
35
 31
0
 62
 7 
  0
LINE
  8
0
 10
170
 20
10.0000000000001
 30
0
 11
170
 21
265
 31
0
 62
 7 
  0
LINE
  8
0
 10
10.0000000000001
 20
0
 30
0
 11
160
 21
0.0000000000000574
 31
0
 62
 7 
  0
LINE
  8
0
 10
0
 20
265
 30
0
 11
0.0000000000001137
 21
9.99999999999999
 31
0
 62
 7 
  0
LINE
  8
0
 10
18.2972441093001
 20
145
 30
0
 11
151.7027558907
 21
145
 31
0
 62
 7 
  0
LINE
  8
0
 10
37.5000000000001
 20
105
 30
0
 11
132.5
 21
105
 31
0
 62
 7 
  0
LINE
  8
0
 10
37.5000000000001
 20
70
 30
0
 11
132.5
 21
70
 31
0
 62
 7 
  0
LINE
  8
0
 10
17.5000000000001
 20
45
 30
0
 11
152.5
 21
45.0000000000001
 31
0
 62
 7 
  0
LINE
  8
0
 10
37.5000000000001
 20
20
 30
0
 11
132.5
 21
20
 31
0
 62
 7 
  0
LINE
  8
0
 10
37.5
 20
255
 30
0
 11
132.5
 21
255
 31
0
 62
 7 
  0
LINE
  8
0
 10
132.5
 20
240
 30
0
 11
37.5
 21
240
 31
0
 62
 7 
  0
LINE
  8
0
 10
17.5
 20
230
 30
0
 11
152.5
 21
230
 31
0
 62
 7 
  0
LINE
  8
0
 10
152.5
 20
215
 30
0
 11
17.5
 21
215
 31
0
 62
 7 
  0
LINE
  8
0
 10
37.5
 20
205
 30
0
 11
132.5
 21
205
 31
0
 62
 7 
  0
LINE
  8
0
 10
132.5
 20
190
 30
0
 11
37.5
 21
190
 31
0
 62
 7 
  0
LINE
  8
0
 10
132.5
 20
155
 30
0
 11
37.5000000000001
 21
155
 31
0
 62
 7 
  0
LINE
  8
0
 10
37.5000000000001
 20
170
 30
0
 11
132.5
 21
170
 31
0
 62
 7 
  0
LINE
  8
0
 10
77.8000000000001
 20
9.70000000000002
 30
0
 11
92.2000000000001
 21
9.70000000000003
 31
0
 62
 7 
  0
LINE
  8
0
 10
77.8000000000001
 20
10.3
 30
0
 11
92.2000000000001
 21
10.3
 31
0
 62
 7 
  0
LINE
  8
0
 10
77.8
 20
264.7
 30
0
 11
92.2
 21
264.7
 31
0
 62
 7 
  0
LINE
  8
0
 10
77.8
 20
265.3
 30
0
 11
92.2
 21
265.3
 31
0
 62
 7 
  0
ARC
  8
0
 10
77.8
 20
265
 30
0
 40
0.299999999999955
 50
90
 51
270
 62
 7 
  0
ARC
  8
0
 10
132.5
 20
247.5
 30
0
 40
7.50000000000003
 50
270
 51
450
 62
 7 
  0
ARC
  8
0
 10
152.5
 20
222.5
 30
0
 40
7.5
 50
270
 51
450
 62
 7 
  0
ARC
  8
0
 10
132.5
 20
197.5
 30
0
 40
7.50000000000003
 50
270
 51
450
 62
 7 
  0
ARC
  8
0
 10
37.5000000000001
 20
162.5
 30
0
 40
7.50000000000003
 50
90
 51
270
 62
 7 
  0
ARC
  8
0
 10
77.8000000000001
 20
10
 30
0
 40
0.299999999999997
 50
90
 51
270
 62
 7 
  0
ARC
  8
0
 10
160
 20
265
 30
0
 40
9.99999999999989
 50
0
 51
90
 62
 7 
  0
ARC
  8
0
 10
160
 20
10.0000000000001
 30
0
 40
9.99999999999999
 50
270
 51
360
 62
 7 
  0
ARC
  8
0
 10
10.0000000000001
 20
10
 30
0
 40
9.99999999999999
 50
180
 51
270
 62
 7 
  0
ARC
  8
0
 10
10
 20
265
 30
0
 40
9.99999999999994
 50
90
 51
180
 62
 7 
  0
ARC
  8
0
 10
151.7027558907
 20
137.5
 30
0
 40
7.50000000000003
 50
270
 51
450
 62
 7 
  0
ARC
  8
0
 10
18.2972441093001
 20
137.5
 30
0
 40
7.50000000000006
 50
90
 51
270
 62
 7 
  0
ARC
  8
0
 10
37.5000000000001
 20
112.5
 30
0
 40
7.50000000000006
 50
90
 51
270
 62
 7 
  0
ARC
  8
0
 10
132.5
 20
112.5
 30
0
 40
7.50000000000006
 50
270
 51
450
 62
 7 
  0
ARC
  8
0
 10
37.5000000000001
 20
77.5
 30
0
 40
7.50000000000003
 50
90
 51
270
 62
 7 
  0
ARC
  8
0
 10
132.5
 20
77.5
 30
0
 40
7.50000000000003
 50
270
 51
450
 62
 7 
  0
ARC
  8
0
 10
17.5000000000001
 20
52.5
 30
0
 40
7.50000000000002
 50
90
 51
270
 62
 7 
  0
ARC
  8
0
 10
152.5
 20
52.5000000000001
 30
0
 40
7.50000000000002
 50
270
 51
450
 62
 7 
  0
ARC
  8
0
 10
37.5000000000001
 20
27.5
 30
0
 40
7.50000000000003
 50
90
 51
270
 62
 7 
  0
ARC
  8
0
 10
132.5
 20
27.5
 30
0
 40
7.50000000000003
 50
270
 51
450
 62
 7 
  0
ARC
  8
0
 10
37.5
 20
247.5
 30
0
 40
7.50000000000003
 50
90
 51
270
 62
 7 
  0
ARC
  8
0
 10
17.5
 20
222.5
 30
0
 40
7.5
 50
90
 51
270
 62
 7 
  0
ARC
  8
0
 10
37.5
 20
197.5
 30
0
 40
7.50000000000003
 50
90
 51
270
 62
 7 
  0
ARC
  8
0
 10
132.5
 20
162.5
 30
0
 40
7.50000000000003
 50
270
 51
450
 62
 7 
  0
ARC
  8
0
 10
92.2000000000001
 20
10
 30
0
 40
0.299999999999997
 50
270
 51
450
 62
 7 
  0
ARC
  8
0
 10
92.2
 20
265
 30
0
 40
0.299999999999955
 50
270
 51
450
 62
 7 
  0
CIRCLE
  8
0
 10
45.5
 20
235
 30
0
 40
3.65
 62
 7 
  0
CIRCLE
  8
0
 10
127.5
 20
235
 30
0
 40
3.65
 62
 7 
  0
CIRCLE
  8
0
 10
127.5
 20
150
 30
0
 40
3.65
 62
 7 
  0
CIRCLE
  8
0
 10
45.5000000000001
 20
150
 30
0
 40
3.65
 62
 7 
  0
CIRCLE
  8
0
 10
45.5000000000001
 20
125
 30
0
 40
3.65
 62
 7 
  0
CIRCLE
  8
0
 10
127.5
 20
125
 30
0
 40
3.65
 62
 7 
  0
CIRCLE
  8
0
 10
45.5000000000001
 20
40
 30
0
 40
3.65
 62
 7 
  0
CIRCLE
  8
0
 10
127.5
 20
40.0000000000001
 30
0
 40
3.65
 62
 7 
  0
CIRCLE
  8
0
 10
10
 20
265
 30
0
 40
3.05
 62
 7 
  0
CIRCLE
  8
0
 10
160
 20
265
 30
0
 40
3.05
 62
 7 
  0
CIRCLE
  8
0
 10
160
 20
10.0000000000001
 30
0
 40
3.05
 62
 7 
  0
CIRCLE
  8
0
 10
10.0000000000001
 20
10
 30
0
 40
3.05
 62
 7 
  0
ENDSEC
  0
EOF
