999
created by FILOU-NC12
0
SECTION
2
HEADER
9
$ACADVER
1
AC1009
9
$INSBASE
10
0.0
20
0.0
30
0.0
9
$EXTMIN
10
0.0
20
0.0
9
$EXTMAX
10
1000.0
20
1000.0
0
ENDSEC
  0
SECTION
  2
TABLES
  0
TABLE
  2
LTYPE
 70
     2
  0
LTYPE
  2
FASTFEED
 70
     0
  3
Fastfeed __ __ __ __ __ __ __ __ __ __ __ __ __
 72
    65
 73
     2
 40
9.525
 49
6.35
 49
-3.175
  0
ENDTAB
  0
TABLE
  2
LAYER
 70
    10
  0
LAYER
  2
0
 70
     0
 62
 7 
  6
CONTINUOUS
  0
ENDTAB
  0
ENDSEC
  0
SECTION
  2
ENTITIES
  0
CIRCLE
  8
0
 10
170
 20
85
 30
0
 40
1.7
 62
 7 
  0
CIRCLE
  8
0
 10
85
 20
85
 30
0
 40
1.7
 62
 7 
  0
CIRCLE
  8
0
 10
115
 20
40
 30
0
 40
2.7
 62
 7 
  0
CIRCLE
  8
0
 10
115
 20
130
 30
0
 40
2.7
 62
 7 
  0
CIRCLE
  8
0
 10
140
 20
40
 30
0
 40
2.7
 62
 7 
  0
CIRCLE
  8
0
 10
140
 20
130
 30
0
 40
2.7
 62
 7 
  0
CIRCLE
  8
0
 10
225
 20
130
 30
0
 40
2.7
 62
 7 
  0
CIRCLE
  8
0
 10
225
 20
40
 30
0
 40
2.7
 62
 7 
  0
CIRCLE
  8
0
 10
30
 20
40
 30
0
 40
2.7
 62
 7 
  0
CIRCLE
  8
0
 10
30
 20
130
 30
0
 40
2.7
 62
 7 
  0
CIRCLE
  8
0
 10
10
 20
10
 30
0
 40
1.7
 62
 7 
  0
CIRCLE
  8
0
 10
245
 20
10
 30
0
 40
1.7
 62
 7 
  0
CIRCLE
  8
0
 10
245
 20
160
 30
0
 40
1.7
 62
 7 
  0
CIRCLE
  8
0
 10
10
 20
160
 30
0
 40
1.7
 62
 7 
  0
LINE
  8
0
 10
145
 20
132.5
 30
0
 11
145
 21
37.5
 31
0
 62
 7 
  0
LINE
  8
0
 10
160
 20
37.5
 30
0
 11
160
 21
132.5
 31
0
 62
 7 
  0
LINE
  8
0
 10
220
 20
17.5
 30
0
 11
220
 21
152.5
 31
0
 62
 7 
  0
LINE
  8
0
 10
205
 20
152.5
 30
0
 11
205
 21
17.5
 31
0
 62
 7 
  0
LINE
  8
0
 10
120
 20
151.7027558907
 30
0
 11
120
 21
18.2972441093
 31
0
 62
 7 
  0
LINE
  8
0
 10
135
 20
18.2972441093
 30
0
 11
135
 21
151.7027558907
 31
0
 62
 7 
  0
LINE
  8
0
 10
75
 20
37.5
 30
0
 11
75
 21
132.5
 31
0
 62
 7 
  0
LINE
  8
0
 10
60
 20
132.5
 30
0
 11
60
 21
37.5
 31
0
 62
 7 
  0
LINE
  8
0
 10
35
 20
152.5
 30
0
 11
35
 21
17.5
 31
0
 62
 7 
  0
LINE
  8
0
 10
50
 20
17.5
 30
0
 11
50
 21
152.5
 31
0
 62
 7 
  0
LINE
  8
0
 10
245
 20
170
 30
0
 11
10
 21
170
 31
0
 62
 7 
  0
LINE
  8
0
 10
255
 20
10
 30
0
 11
255
 21
160
 31
0
 62
 7 
  0
LINE
  8
0
 10
10
 20
0
 30
0
 11
245
 21
0
 31
0
 62
 7 
  0
LINE
  8
0
 10
0
 20
160
 30
0
 11
0
 21
10
 31
0
 62
 7 
  0
LINE
  8
0
 10
25
 20
37.5
 30
0
 11
25
 21
132.5
 31
0
 62
 7 
  0
LINE
  8
0
 10
10
 20
132.5
 30
0
 11
10
 21
37.5
 31
0
 62
 7 
  0
LINE
  8
0
 10
110
 20
37.5
 30
0
 11
110
 21
132.5
 31
0
 62
 7 
  0
LINE
  8
0
 10
95
 20
132.5
 30
0
 11
95
 21
37.5
 31
0
 62
 7 
  0
LINE
  8
0
 10
245
 20
37.5
 30
0
 11
245
 21
132.5
 31
0
 62
 7 
  0
LINE
  8
0
 10
230
 20
132.5
 30
0
 11
230
 21
37.5
 31
0
 62
 7 
  0
LINE
  8
0
 10
195
 20
37.5
 30
0
 11
195
 21
132.5
 31
0
 62
 7 
  0
LINE
  8
0
 10
180
 20
132.5
 30
0
 11
180
 21
37.5
 31
0
 62
 7 
  0
ARC
  8
0
 10
152.5
 20
37.5
 30
0
 40
7.5
 50
180
 51
360
 62
 7 
  0
ARC
  8
0
 10
152.5
 20
132.5
 30
0
 40
7.50000000000003
 50
0
 51
180
 62
 7 
  0
ARC
  8
0
 10
212.5
 20
152.5
 30
0
 40
7.5
 50
0
 51
180
 62
 7 
  0
ARC
  8
0
 10
212.5
 20
17.5
 30
0
 40
7.50000000000003
 50
180
 51
360
 62
 7 
  0
ARC
  8
0
 10
127.5
 20
18.2972441093
 30
0
 40
7.49999999999983
 50
180
 51
360
 62
 7 
  0
ARC
  8
0
 10
127.5
 20
151.7027558907
 30
0
 40
7.50000000000004
 50
0
 51
180
 62
 7 
  0
ARC
  8
0
 10
67.5
 20
132.5
 30
0
 40
7.50000000000001
 50
0
 51
180
 62
 7 
  0
ARC
  8
0
 10
67.5
 20
37.5
 30
0
 40
7.50000000000003
 50
180
 51
360
 62
 7 
  0
ARC
  8
0
 10
42.5
 20
17.5
 30
0
 40
7.50000000000004
 50
180
 51
360
 62
 7 
  0
ARC
  8
0
 10
42.5
 20
152.5
 30
0
 40
7.5
 50
0
 51
180
 62
 7 
  0
ARC
  8
0
 10
245
 20
160
 30
0
 40
10
 50
0
 51
90
 62
 7 
  0
ARC
  8
0
 10
245
 20
10
 30
0
 40
10
 50
270
 51
360
 62
 7 
  0
ARC
  8
0
 10
10
 20
10
 30
0
 40
9.99999999999997
 50
180
 51
270
 62
 7 
  0
ARC
  8
0
 10
10
 20
160
 30
0
 40
9.99999999999997
 50
90
 51
180
 62
 7 
  0
ARC
  8
0
 10
17.5
 20
132.5
 30
0
 40
7.50000000000001
 50
0
 51
180
 62
 7 
  0
ARC
  8
0
 10
17.5
 20
37.5
 30
0
 40
7.50000000000004
 50
180
 51
360
 62
 7 
  0
ARC
  8
0
 10
102.5
 20
132.5
 30
0
 40
7.50000000000001
 50
0
 51
180
 62
 7 
  0
ARC
  8
0
 10
102.5
 20
37.5
 30
0
 40
7.50000000000001
 50
180
 51
360
 62
 7 
  0
ARC
  8
0
 10
237.5
 20
132.5
 30
0
 40
7.50000000000006
 50
0
 51
180
 62
 7 
  0
ARC
  8
0
 10
237.5
 20
37.5
 30
0
 40
7.50000000000009
 50
180
 51
360
 62
 7 
  0
ARC
  8
0
 10
187.5
 20
132.5
 30
0
 40
7.5
 50
0
 51
180
 62
 7 
  0
ARC
  8
0
 10
187.5
 20
37.5
 30
0
 40
7.50000000000003
 50
180
 51
360
 62
 7 
  0
ENDSEC
  0
EOF
